<?xml version="1.0" encoding="UTF-8"?>
<svg width="36px" height="35px" viewBox="0 0 36 35" version="1.1" xmlns="http://www.w3.org/2000/svg" xmlns:xlink="http://www.w3.org/1999/xlink">
    <title>编组 2备份 3</title>
    <defs>
        <linearGradient x1="89.0350569%" y1="58.6540011%" x2="50%" y2="58.6540011%" id="linearGradient-1">
            <stop stop-color="#FFE67D" offset="0%"></stop>
            <stop stop-color="#FCD261" offset="100%"></stop>
        </linearGradient>
        <linearGradient x1="65.3316171%" y1="71.9664379%" x2="23.9628619%" y2="96.9290445%" id="linearGradient-2">
            <stop stop-color="#FFDB79" stop-opacity="0.0794908217" offset="0%"></stop>
            <stop stop-color="#ECAD3C" offset="97.0360008%"></stop>
            <stop stop-color="#FCD261" offset="100%"></stop>
        </linearGradient>
        <path d="M32.9271557,10.7582828 C31.9065788,10.5020328 29.5069983,10.5051578 25.9970301,10.4160953 C26.1627718,9.68328281 26.2011455,9.02234531 26.2011455,7.84890781 C26.2011455,5.04578281 24.066915,2.57703281 22.1792559,2.57703281 C20.8459741,2.57703281 19.7470169,3.62000156 19.7298712,4.90281406 C19.711909,6.47625156 19.3198909,10.5739078 16.5806624,11.9520328 C16.3798128,12.0535953 14.2479151,13.2913185 13.7813656,13.7377471 C13.3148161,14.1841757 12.8482667,24.8984614 13.7813656,24.8984614 C14.7144645,24.8984614 15.181014,25.34489 15.6475634,25.7913185 C16.1141129,26.2377471 17.8397627,26.6137516 19.7747766,27.0395328 C20.189539,27.1301578 22.3809219,27.5770328 24.650685,27.5770328 L29.1142803,27.5770328 C30.4745052,27.5770328 31.8720961,26.5727648 32.2426407,25.7913185 C32.6131852,25.0098722 32.4236955,24.849583 32.7426407,24.3680013 C33.1257922,23.7894732 33.6517152,22.7860275 33.7231193,22.5770328 C34.013478,21.7271729 33.79073,21.5301016 34.1182138,20.5572803 C34.2989065,20.0205155 34.6573725,19.0665777 34.7426407,18.5770328 C34.992605,17.1419285 34.6887715,17.1021278 34.7426407,16.0770328 C34.7893164,15.1888243 35.2426407,14.2487207 35.2426407,13.4410953 C35.2426407,11.7013772 34.6857492,11.1998366 32.9271557,10.7582828 Z" id="path-3"></path>
    </defs>
    <g id="移动端改造" stroke="none" stroke-width="1" fill="none" fill-rule="evenodd">
        <g id="感谢语" transform="translate(-94.000000, -725.000000)">
            <g id="编组-2备份-2" transform="translate(94.757359, 725.422967)">
                <g id="编组-2备份-3" transform="translate(0.000000, 0.000000)">
                    <g id="形状" fill-rule="nonzero">
                        <use fill="url(#linearGradient-1)" xlink:href="#path-3"></use>
                        <use fill="url(#linearGradient-2)" xlink:href="#path-3"></use>
                    </g>
                    <path d="M29.7426407,22.5770328 C30.0187831,22.5770328 30.2426407,22.8008904 30.2426407,23.0770328 C30.2426407,23.3531752 30.0187831,23.5770328 29.7426407,23.5770328 L25.7426407,23.5770328 C25.4664983,23.5770328 25.2426407,23.3531752 25.2426407,23.0770328 C25.2426407,22.8008904 25.4664983,22.5770328 25.7426407,22.5770328 L29.7426407,22.5770328 Z M30.7426407,18.5770328 C31.0187831,18.5770328 31.2426407,18.8008904 31.2426407,19.0770328 C31.2426407,19.3531752 31.0187831,19.5770328 30.7426407,19.5770328 L26.7426407,19.5770328 C26.4664983,19.5770328 26.2426407,19.3531752 26.2426407,19.0770328 C26.2426407,18.8008904 26.4664983,18.5770328 26.7426407,18.5770328 L30.7426407,18.5770328 Z M31.7426407,14.5770328 C32.0187831,14.5770328 32.2426407,14.8008904 32.2426407,15.0770328 C32.2426407,15.3531752 32.0187831,15.5770328 31.7426407,15.5770328 L27.7426407,15.5770328 C27.4664983,15.5770328 27.2426407,15.3531752 27.2426407,15.0770328 C27.2426407,14.8008904 27.4664983,14.5770328 27.7426407,14.5770328 L31.7426407,14.5770328 Z" id="形状结合" fill="#D3AC44" fill-rule="nonzero"></path>
                    <path d="M16.2426407,25.6881439 C16.2426407,26.1790637 15.7949254,26.5770328 15.2426407,26.5770328 L12.2426407,26.5770328 C11.6903559,26.5770328 11.2426407,26.1790637 11.2426407,25.6881439 L11.2426407,11.4659217 C11.2426407,10.9750019 11.6903559,10.5770328 12.2426407,10.5770328 L15.2426407,10.5770328 C15.7949254,10.5770328 16.2426407,10.9750019 16.2426407,11.4659217 L16.2426407,25.6881439 Z" id="颜色替换" fill="#0089FF" fill-rule="nonzero"></path>
                    <path d="M34.7426407,5.57703281 C35.0187831,5.57703281 35.2426407,5.80089043 35.2426407,6.07703281 C35.2426407,6.35317518 35.0187831,6.57703281 34.7426407,6.57703281 L30.7426407,6.57703281 C30.4664983,6.57703281 30.2426407,6.35317518 30.2426407,6.07703281 C30.2426407,5.80089043 30.4664983,5.57703281 30.7426407,5.57703281 L34.7426407,5.57703281 Z M32.0678655,0.199662329 C32.3324142,0.458521824 32.3370262,0.882828011 32.0781667,1.14737673 L32.0678655,1.15767797 L32.0678655,1.15767797 L29.7833666,3.39304779 C29.5112993,3.65926423 29.0763631,3.65926423 28.8042957,3.39304779 C28.539747,3.1341883 28.535135,2.70988211 28.7939945,2.4453334 L28.8042957,2.43503215 L28.8042957,2.43503215 L31.0887945,0.199662329 C31.3608619,-0.0665541098 31.7957981,-0.0665541098 32.0678655,0.199662329 Z" id="形状结合" fill="#FCD261"></path>
                    <path d="M11.2175144,29.6021591 L10.0605118,32.0770328 L11.2175144,34.5519065 L8.74264069,33.3949039 L6.26776695,34.5519065 L7.42476959,32.0770328 L6.26776695,29.6021591 L8.74264069,30.7591617 L11.2175144,29.6021591 Z M8.48528137,15.3343921 L6.50184828,19.5770328 L8.48528137,23.8196735 L4.24264069,21.8362404 L6.83897383e-14,23.8196735 L1.9834331,19.5770328 L6.70574707e-14,15.3343921 L4.24264069,17.3178252 L8.48528137,15.3343921 Z M10.6568542,8.16281924 L9.99570988,9.57703281 L10.6568542,10.9912464 L9.24264069,10.330102 L7.82842712,10.9912464 L8.48957149,9.57703281 L7.82842712,8.16281924 L9.24264069,8.82396361 L10.6568542,8.16281924 Z" id="形状结合" fill="#FCD261" fill-rule="nonzero"></path>
                </g>
            </g>
        </g>
    </g>
</svg>